# xmcd
#
# Track frame offsets:
#	150
#	16445
#	28477
#	45878
#	71585
#	87544
#	100874
#	118474
#	133450
#	156625
#	178383
#	188970
#	203392
#	220891
#
# Disc length: 3120 seconds
#
# Revision: 1
# Processed by: cddbd v1.5.2PL0 Copyright (c) Steve Scherf et al.
# Submitted via: audiograbber 1.83.01
#
DISCID=da0c2e0e
DTITLE=Tyson, Marc - One more try
DYEAR=2006
DGENRE=Country
TTITLE0=Till I can gain control again
TTITLE1=One more try
TTITLE2=First fool in line
TTITLE3=Desperados waiting for a train
TTITLE4=Invitation to my heart
TTITLE5=I still miss someone
TTITLE6=For the good times
TTITLE7=Stranger
TTITLE8=White teartrops
TTITLE9=Against the wind
TTITLE10=Singing the blues
TTITLE11=Fifty beers
TTITLE12=Five hundred miles
TTITLE13=You ain't goin' nowhere
EXTD=
EXTT0=
EXTT1=
EXTT2=
EXTT3=
EXTT4=
EXTT5=
EXTT6=
EXTT7=
EXTT8=
EXTT9=
EXTT10=
EXTT11=
EXTT12=
EXTT13=
PLAYORDER=
